<svg width="60" height="33" viewBox="0 0 60 33" fill="none" xmlns="http://www.w3.org/2000/svg">
<path fill-rule="evenodd" clip-rule="evenodd" d="M0.199346 0C0.0892504 0 0 0.11153 0 0.24911V9.34164C0 9.47922 0.0892504 9.59075 0.199346 9.59075H14.2459C14.3559 9.59075 14.4452 9.47922 14.4452 9.34164V4.98221C14.4452 2.23061 12.6602 0 10.4583 0H0.199346ZM17.0082 0C16.898 0 16.8088 0.11153 16.8088 0.24911V9.34164C16.8088 9.47922 16.898 9.59075 17.0082 9.59075H58.807C58.9172 9.59075 59.0064 9.47922 59.0064 9.34164V4.98221C59.0064 2.23061 57.2213 0 55.0195 0H17.0082ZM16.8088 11.5836C16.8088 11.446 16.898 11.3345 17.0082 11.3345H58.807C58.9171 11.3345 59.0064 11.446 59.0064 11.5836V20.6761C59.0064 20.8138 58.9172 20.9252 58.807 20.9252H17.0082C16.898 20.9252 16.8088 20.8138 16.8088 20.6761V11.5836ZM0.199346 11.3345C0.0892504 11.3345 0 11.446 0 11.5836V20.6761C0 20.8138 0.0892504 20.9252 0.199346 20.9252H14.2459C14.3559 20.9252 14.4452 20.8138 14.4452 20.6761V11.5836C14.4452 11.446 14.3559 11.3345 14.2459 11.3345H0.199346ZM16.8088 23.1672C16.8088 23.0296 16.898 22.9181 17.0082 22.9181H58.807C58.9171 22.9181 59.0064 23.0296 59.0064 23.1672V27.5267C59.0064 30.2782 57.2213 32.5089 55.0195 32.5089H17.0082C16.898 32.5089 16.8088 32.3974 16.8088 32.2598V23.1672ZM0.199346 22.9181C0.0892504 22.9181 0 23.0296 0 23.1672V32.2598C0 32.3974 0.0892504 32.5089 0.199346 32.5089H10.4583C12.6602 32.5089 14.4452 30.2782 14.4452 27.5267V23.1672C14.4452 23.0296 14.3559 22.9181 14.2459 22.9181H0.199346Z" fill="#D92050"/>
</svg>
